# generated from PmQm by Jehee Lee
:FULLY-SPECIFIED
:DEGREES
343
root 12.7374973 38.8762 -22.65373137 -178.8810843 -7.569997713 178.6038483
RightUpLeg -27.51690768 2.500537315 -1.411188206
RightLeg 2.652215847 -0.1828973059 0.04141817948
RightFoot 2.309244302 3.990915829 4.044031015
RightToes 2.32829e-010 -1.59028e-015 9.93923e-017
Spine -9.49751 -6.05755 -10.1279
Spine1 12.8917 -7.15563 5.92882
HEad -8.55562 5.05889 1.51876
LeftShoulder1 9.93923e-017 0 1.22299e-017
LeftArm 29.9484 10.6982 -76.4209
LeftForeArm -47.6176 -30.435 18.9857
LeftHand 0.867906 6.04462 -1.99351
RightShoulder 1.98785e-016 -4.96962e-017 1.55301e-017
RightArm 23.3053 -63.3984 74.2572
RightForeArm -36.4712 18.0456 -5.27696
RightHand 1.09058 -10.5989 -3.03782
LeftUpLeg 14.25608236 0.268978869 3.276118117
LeftLeg 2.620501322 0 0
LeftFoot -10.49293632 -7.098809808 -7.768276707
LeftToes 8.82235e-011 9.04645e-011 1.87288e-011
344
root 12.58513136 38.601 -24.16981067 -178.670544 -7.315151924 178.285022
RightUpLeg -29.2457125 2.560968739 -1.790185366
RightLeg 0.1047273874 0.4315876655 -0.03650156116
RightFoot -0.5589231569 3.498634085 5.085350521
RightToes 2.32829e-010 -1.59028e-015 9.93923e-017
Spine -10.2439 -6.31079 -10.7884
Spine1 13.3337 -7.44763 6.66218
HEad -8.54849 5.23696 1.35208
LeftShoulder1 9.93923e-017 0 1.22299e-017
LeftArm 29.7653 10.9109 -76.8662
LeftForeArm -47.4502 -29.5983 18.6497
LeftHand 0.826019 5.78296 -1.20192
RightShoulder 1.98785e-016 -4.96962e-017 1.55301e-017
RightArm 18.8351 -63.2616 73.5959
RightForeArm -32.1964 17.001 -3.12863
RightHand 1.1245 -10.9169 -2.9294
LeftUpLeg 17.77704374 0.6876651359 3.278458171
LeftLeg 0.151712345 0 0
LeftFoot -8.576506131 -7.581399846 -10.06900208
LeftToes 8.82235e-011 9.04645e-011 1.87288e-011
345
root 12.43514336 38.4189 -25.73721829 -178.5263694 -6.686606818 178.6329902
RightUpLeg -29.91857377 2.877342095 -1.235083367
RightLeg 1.858433306 0 0
RightFoot -0.7017409721 3.223323662 5.138000207
RightToes 2.32829e-010 -1.59028e-015 9.93923e-017
Spine -10.7843 -6.26734 -10.1272
Spine1 13.8011 -7.57906 7.00812
HEad -8.70347 5.48074 1.07417
LeftShoulder1 9.93923e-017 0 1.22299e-017
LeftArm 29.2754 12.6124 -77.5387
LeftForeArm -48.1855 -28.5891 18.2097
LeftHand 0.801969 5.68333 -0.307163
RightShoulder 1.98785e-016 -4.96962e-017 1.55301e-017
RightArm 13.7765 -62.7281 73.6493
RightForeArm -28.2108 15.8837 -1.35653
RightHand 1.12705 -10.9789 -2.80964
LeftUpLeg 21.9063347 0.9978539677 3.524418267
LeftLeg -3.756877186 0 0
LeftFoot -4.572913889 -7.176352102 -12.26664323
LeftToes 8.82235e-011 9.04645e-011 1.87288e-011
346
root 12.34496308 38.2878 -27.39799046 -178.5413787 -6.36060941 179.694631
RightUpLeg -27.74323862 3.809097959 0.2604088356
RightLeg 0.690568793 0 0
RightFoot 5.182305388 2.153289826 3.138375973
RightToes 2.32829e-010 -1.59028e-015 9.93923e-017
Spine -11.0823 -6.32863 -8.25998
Spine1 14.0797 -7.86548 7.06816
HEad -8.76553 5.69424 0.709591
LeftShoulder1 9.93923e-017 0 1.22299e-017
LeftArm 29.0949 15.9192 -78.3907
LeftForeArm -49.8271 -27.3878 17.7096
LeftHand 0.82302 5.83404 -0.371178
RightShoulder 1.98785e-016 -4.96962e-017 1.55301e-017
RightArm 10.2148 -62.1444 74.3148
RightForeArm -26.0691 15.2511 -0.567928
RightHand 1.12095 -10.8908 -2.91922
LeftUpLeg 23.04501102 0.2351599673 5.224016807
LeftLeg -1.443898537 0 0
LeftFoot -2.084298503 -6.511007667 -15.46625388
LeftToes 8.82235e-011 9.04645e-011 1.87288e-011
347
root 12.3828435 38.165 -29.09161972 -178.8396617 -6.45091197 -178.4735728
RightUpLeg -27.85017131 4.922532118 1.88365332
RightLeg 5.577349032 0 0
RightFoot 9.702036454 1.765895877 0.2151382305
RightToes 2.32829e-010 -1.59028e-015 9.93923e-017
Spine -10.9399 -6.41197 -5.48148
Spine1 13.8472 -8.17579 6.99416
HEad -8.70126 5.58694 0.205254
LeftShoulder1 9.93923e-017 0 1.22299e-017
LeftArm 29.0531 20.3477 -79.6497
LeftForeArm -50.8804 -25.8241 16.4731
LeftHand 0.855054 6.00922 -1.12265
RightShoulder 1.98785e-016 -4.96962e-017 1.55301e-017
RightArm 8.52088 -61.6776 75.5044
RightForeArm -25.8572 15.2745 -0.718439
RightHand 1.12223 -10.8038 -3.2164
LeftUpLeg 20.04541291 -2.381314328 8.365668555
LeftLeg 9.057113312 0 0
LeftFoot -0.1254406725 -5.126118591 -19.83822344
LeftToes 8.82235e-011 9.04645e-011 1.87288e-011
348
root 12.43953766 38.0808 -30.71165956 -179.4543545 -6.378961777 -176.1114952
RightUpLeg -28.06436378 5.399657361 4.276978362
RightLeg 11.214213 0 0
RightFoot 10.82362793 2.607195585 -1.650050684
RightToes 2.32829e-010 -1.59028e-015 9.93923e-017
Spine -10.1178 -6.00399 -1.72661
Spine1 13.3684 -7.93258 6.7795
HEad -9.08561 4.90566 -0.295565
LeftShoulder1 9.93923e-017 0 1.22299e-017
LeftArm 24.5905 24.621 -81.2319
LeftForeArm -46.0359 -23.8681 12.0075
LeftHand 0.858088 6.00119 -1.52961
RightShoulder 1.98785e-016 -4.96962e-017 1.55301e-017
RightArm 7.0644 -60.6268 77.2965
RightForeArm -26.1256 15.4337 -1.01533
RightHand 1.12325 -10.7692 -3.33988
LeftUpLeg 15.96435664 -4.394369576 12.46318798
LeftLeg 20.76011956 0 0
LeftFoot 7.287538459 -3.140886751 -22.15978834
LeftToes 8.82235e-011 9.04645e-011 1.87288e-011
349
root 12.49307205 37.9969 -32.16095041 179.8333367 -5.823533011 -173.9238082
RightUpLeg -28.00073934 4.542800804 7.034676014
RightLeg 16.8127869 0 0
RightFoot 7.756920477 4.492019045 -2.862446419
RightToes 2.32829e-010 -1.59028e-015 9.93923e-017
Spine -8.85864 -5.1147 2.15902
Spine1 13.2645 -6.98564 6.37604
HEad -10.1836 3.71447 -0.298579
LeftShoulder1 9.93923e-017 0 1.22299e-017
LeftArm 13.6046 27.8414 -82.5725
LeftForeArm -33.7381 -20.3283 4.26896
LeftHand 0.85281 5.94591 -1.68942
RightShoulder 1.98785e-016 -4.96962e-017 1.55301e-017
RightArm 4.79104 -57.8585 79.5258
RightForeArm -25.3247 15.0762 -0.454751
RightHand 1.12097 -10.7754 -3.21477
LeftUpLeg 10.45595642 -5.352541964 17.06405956
LeftLeg 33.81977219 0 0
LeftFoot 17.41391501 -1.261036048 -20.54470913
LeftToes 8.82235e-011 9.04645e-011 1.87288e-011
350
root 12.54257971 37.9889 -33.47574256 179.2644557 -5.164983207 -172.6349989
RightUpLeg -27.09259093 3.701807331 8.882344739
RightLeg 20.77972619 0 0
RightFoot 3.70643534 5.914280819 -4.023893104
RightToes 2.32829e-010 -1.59028e-015 9.93923e-017
Spine -7.82617 -4.18321 4.85693
Spine1 13.5892 -5.81217 5.89013
HEad -11.1141 2.29806 0.547046
LeftShoulder1 9.93923e-017 0 1.22299e-017
LeftArm 2.37092 30.3708 -83.2703
LeftForeArm -21.1373 -14.5294 -2.58577
LeftHand 0.879318 6.09409 -2.61043
RightShoulder 1.98785e-016 -4.96962e-017 1.55301e-017
RightArm 3.13328 -53.2422 81.7141
RightForeArm -23.927 14.2745 0.861444
RightHand 1.12761 -10.7757 -3.38363
LeftUpLeg 4.753495481 -5.679376995 18.00553269
LeftLeg 43.69598633 1.403323604 5.128771751
LeftFoot 23.9304155 0.0493901711 -17.90513238
LeftToes 8.82235e-011 9.04645e-011 1.87288e-011
351
root 12.59318927 38.2368 -34.8056119 178.9381509 -4.672739255 -172.5098682
RightUpLeg -24.80706415 4.144413195 9.370972303
RightLeg 21.62631274 0 0
RightFoot 1.339751212 6.024141552 -4.784716153
RightToes 2.32829e-010 -1.59028e-015 9.93923e-017
Spine -7.471 -3.38381 6.01816
Spine1 13.8059 -4.71277 5.16031
HEad -10.7382 0.819757 1.88153
LeftShoulder1 9.93923e-017 0 1.22299e-017
LeftArm -1.51826 33.0471 -83.3931
LeftForeArm -15.0812 -9.44565 -6.17775
LeftHand 0.93976 6.5249 -4.42647
RightShoulder 1.98785e-016 -4.96962e-017 1.55301e-017
RightArm 4.08717 -48.0352 83.6402
RightForeArm -24.1846 14.0368 1.48387
RightHand 1.15347 -10.7282 -4.27077
LeftUpLeg -0.947047756 -6.275558072 17.04017471
LeftLeg 50.84764905 1.622696989 9.628516089
LeftFoot 23.9230801 -0.5599794383 -14.18835057
LeftToes 8.82235e-011 9.04645e-011 1.87288e-011
352
root 12.64742905 38.6402 -36.22638604 178.803028 -4.046243164 -173.2453125
RightUpLeg -21.73170907 4.545153968 9.123348748
RightLeg 20.76495654 0 0
RightFoot -0.2372221364 6.297207843 -4.884565189
RightToes 2.32829e-010 -1.59028e-015 9.93923e-017
Spine -7.67037 -2.51773 6.47335
Spine1 13.688 -3.46845 3.80072
HEad -9.14405 -0.707546 2.91489
LeftShoulder1 9.93923e-017 0 1.22299e-017
LeftArm 1.10318 36.3486 -82.924
LeftForeArm -14.1159 -7.68597 -7.38561
LeftHand 1.00284 7.13454 -6.18465
RightShoulder 1.98785e-016 -4.96962e-017 1.55301e-017
RightArm 7.34038 -43.5911 85.2189
RightForeArm -27.2352 15.2275 0.003924370001
RightHand 1.18297 -10.6363 -5.35387
LeftUpLeg -6.24248334 -6.926401918 14.61727198
LeftLeg 54.5244987 0.5382504156 12.06272978
LeftFoot 20.24885246 -1.513716808 -10.7142781
LeftToes 8.82235e-011 9.04645e-011 1.87288e-011
353
root 12.70261407 38.9605 -37.67650576 178.6952352 -2.980769382 -174.2024697
RightUpLeg -18.76962663 4.251091628 8.700015702
RightLeg 20.26940941 0 0
RightFoot -2.333901658 7.459436475 -4.599564522
RightToes 2.32829e-010 -1.59028e-015 9.93923e-017
Spine -7.83645 -1.43061 7.21708
Spine1 13.4939 -1.89804 1.99475
HEad -7.51557 -2.16027 3.22743
LeftShoulder1 9.93923e-017 0 1.22299e-017
LeftArm 3.31971 40.2464 -81.5602
LeftForeArm -12.7848 -8.16886 -7.155
LeftHand 1.03904 7.59664 -7.14162
RightShoulder 1.98785e-016 -4.96962e-017 1.55301e-017
RightArm 13.4859 -40.2862 86.3907
RightForeArm -35.0111 17.704 -4.95831
RightHand 1.18406 -10.5387 -5.75478
LeftUpLeg -11.13339563 -7.386694072 12.01016112
LeftLeg 55.752187 -1.293850426 11.35717779
LeftFoot 16.54616887 -1.579578238 -9.570550145
LeftToes 8.82235e-011 9.04645e-011 1.87288e-011
354
root 12.75685432 39.1443 -39.10241707 178.5563479 -1.475277266 -175.0742708
RightUpLeg -16.21693958 3.877633248 8.202069561
RightLeg 20.58796927 0 0
RightFoot -4.65927454 9.238707103 -4.696017539
RightToes 2.32829e-010 -1.59028e-015 9.93923e-017
Spine -7.68166 -0.17435 8.22232
Spine1 13.3304 -0.160738 0.328532
HEad -6.7365 -3.35321 3.01867
LeftShoulder1 9.93923e-017 0 1.22299e-017
LeftArm 5.60205 44.353 -79.4347
LeftForeArm -13.5077 -8.53464 -6.98397
LeftHand 1.03691 7.58639 -7.36546
RightShoulder 1.98785e-016 -4.96962e-017 1.55301e-017
RightArm 23.2456 -37.7105 87.0416
RightForeArm -47.9143 19.9529 -13.667
RightHand 1.16294 -10.4491 -5.53183
LeftUpLeg -15.46589817 -7.232084677 9.757068366
LeftLeg 54.76966006 -3.335291947 8.749882289
LeftFoot 13.45039154 -1.203634409 -9.584209199
LeftToes 8.82235e-011 9.04645e-011 1.87288e-011
355
root 12.81057239 39.2712 -40.50940487 178.5289933 0.3919136424 -175.817607
RightUpLeg -13.9474299 3.643769874 7.693977059
RightLeg 21.02480866 0 0
RightFoot -6.762115292 11.4328814 -5.565801358
RightToes 2.32829e-010 -1.59028e-015 9.93923e-017
Spine -7.50668 1.16492 9.12466
Spine1 13.1693 1.53409 -1.02202
HEad -6.76522 -4.21988 2.61991
LeftShoulder1 9.93923e-017 0 1.22299e-017
LeftArm 7.35789 48.1467 -76.6541
LeftForeArm -14.7028 -10.3329 -5.82241
LeftHand 1.0147 7.29527 -7.40219
RightShoulder 1.98785e-016 -4.96962e-017 1.55301e-017
RightArm 27.874 -35.0547 86.6223
RightForeArm -54.4254 21.509 -20.8458
RightHand 1.13653 -10.2799 -5.47069
LeftUpLeg -19.21374593 -6.073238136 7.923537771
LeftLeg 51.40407375 -5.045919995 6.024046927
LeftFoot 9.475743516 -1.037362833 -9.122277814
LeftToes 8.82235e-011 9.04645e-011 1.87288e-011
